OpenSim_Sub02_EMGBaseline_GRF.mot
version=1
nRows=34
nColumns=19
inDegrees=no
endheader
time	lFx	lFy	lFz	lCOPx	lCOPy	lCOPz	rFx	rFy	rFz	rCOPx	rCOPy	rCOPz	lMx	lMy	lMz	rMx	rMy	rMz
0	8.91812743	236.61895503	21.97745432	0.65160108	0	-0.66259479	1.65900115	307.15576728	-28.74805445	0.67569065	0	-0.37627334	0	-6.53513343	0	0	0.50357915	0.00000000
0.01000000	8.41603707	236.98353528	22.31631846	0.65176203	0	-0.66247836	1.53420873	306.75955102	-28.73382653	0.67540625	0	-0.37614063	0	-6.79265956	0	0	0.52230693	-0.00000000
0.02000000	8.01565997	237.23998368	22.48808574	0.65173408	0	-0.66244445	1.40192810	306.25100410	-28.67747341	0.67541803	0	-0.37610621	0	-6.92461474	0	0	0.51860115	-0.00000000
0.03000000	7.75324015	237.34092418	22.53007052	0.65160668	0	-0.66245162	1.25700570	305.72784631	-28.57460963	0.67556693	0	-0.37613443	0	-6.95608539	0	0	0.51433731	0.00000000
0.04000000	7.59990103	237.43980240	22.51233903	0.65143400	0	-0.66247979	1.09914090	305.31431664	-28.45299160	0.67569919	0	-0.37614299	0	-6.95504600	0	0	0.52599145	-0.00000000
0.05000000	7.48265743	237.71624376	22.50275009	0.65114430	0	-0.66250545	0.89418902	305.02027570	-28.34271847	0.67575121	0	-0.37613605	0	-6.93827453	0	0	0.54727046	0
0.06000000	7.35879046	238.24712457	22.54438029	0.65068692	0	-0.66248979	0.62565070	304.78584138	-28.26655719	0.67570206	0	-0.37613889	0	-6.90509010	0	0	0.56910802	-0.00000000
0.07000000	7.21036664	239.04184722	22.64724800	0.65015259	0	-0.66239583	0.33555772	304.56640304	-28.20641305	0.67559134	0	-0.37613583	0	-6.87160265	0	0	0.57408129	-0.00000000
0.08000000	7.03768126	240.00543064	22.76119264	0.64975007	0	-0.66232312	0.06689161	304.33470598	-28.12886654	0.67546169	0	-0.37610996	0	-6.85582348	0	0	0.57683653	-0.00000000
0.09000000	6.81406886	240.94790425	22.83455688	0.64946361	0	-0.66233878	-0.13222440	304.03509756	-28.02249494	0.67557529	0	-0.37606974	0	-6.85640456	0	0	0.57951768	0.00000000
0.10000000	6.53503466	241.74680330	22.87515484	0.64922023	0	-0.66239395	-0.25832949	303.57014593	-27.90884526	0.67601061	0	-0.37606797	0	-6.86703685	0	0	0.56863205	0.00000000
0.11000000	6.22865443	242.37766679	22.90669641	0.64912545	0	-0.66244434	-0.32715976	302.93197639	-27.78444263	0.67665880	0	-0.37607789	0	-6.90302045	0	0	0.53954580	0.00000000
0.12000000	5.94390358	242.81050134	22.93069498	0.64917589	0	-0.66247873	-0.37108273	302.09336228	-27.63643473	0.67739016	0	-0.37608093	0	-6.95313255	0	0	0.51502553	0.00000000
0.13000000	5.72566130	243.09542691	22.94328383	0.64923439	0	-0.66255298	-0.40457006	301.03830238	-27.45711024	0.67813152	0	-0.37609559	0	-6.98738135	0	0	0.48260085	-0.00000000
0.14000000	5.57721310	243.29987944	22.95093837	0.64913574	0	-0.66265142	-0.41794028	299.93417223	-27.25252389	0.67883496	0	-0.37612717	0	-6.99624283	0	0	0.43774181	0.00000000
0.15000000	5.47979026	243.46258821	22.93096742	0.64896888	0	-0.66271607	-0.40754894	299.00679826	-27.04979145	0.67937952	0	-0.37614860	0	-6.98805530	0	0	0.40475898	-0.00000000
0.16000000	5.44319960	243.66422641	22.86814063	0.64869930	0	-0.66276383	-0.39526329	298.32908493	-26.89202002	0.67966183	0	-0.37621594	0	-6.97892757	0	0	0.39281752	-0.00000000
0.17000000	5.48140683	243.97939761	22.80527475	0.64819999	0	-0.66277127	-0.40080623	297.95113677	-26.81250171	0.67968798	0	-0.37634110	0	-6.98093626	0	0	0.38982711	0.00000000
0.18000000	5.57040895	244.45233556	22.75726482	0.64750898	0	-0.66278536	-0.39929232	297.86110281	-26.82392702	0.67947540	0	-0.37649444	0	-6.97768149	0	0	0.38407230	0.00000000
0.19000000	5.67222278	245.13048799	22.73086800	0.64677777	0	-0.66283866	-0.34512299	297.93216316	-26.90793320	0.67907366	0	-0.37666813	0	-6.97026193	0	0	0.37650567	0.00000000
0.20000000	5.77343128	245.98486195	22.77098075	0.64602792	0	-0.66286910	-0.22214904	298.04899005	-27.01458124	0.67853808	0	-0.37683208	0	-6.97262227	0	0	0.37656385	-0.00000000
0.21000000	5.86278011	246.96111120	22.88167910	0.64531683	0	-0.66286710	-0.05536012	298.10986299	-27.10115756	0.67797298	0	-0.37700166	0	-6.98226489	0	0	0.38290541	0.00000000
0.22000000	5.95489088	247.95180380	23.01747752	0.64470077	0	-0.66284144	0.12518114	298.06798846	-27.14820520	0.67759151	0	-0.37718079	0	-6.98948696	0	0	0.37704472	0
0.23000000	6.08239191	248.83269782	23.14361117	0.64403302	0	-0.66278030	0.29742586	297.94738524	-27.15106461	0.67756733	0	-0.37727787	0	-6.99187390	0	0	0.35771995	-0.00000000
0.24000000	6.29175469	249.61770783	23.24315520	0.64330238	0	-0.66270059	0.45427381	297.76514894	-27.12066245	0.67786992	0	-0.37723212	0	-6.99140507	0	0	0.33471167	0
0.25000000	6.61237987	250.45397716	23.29909385	0.64260031	0	-0.66262215	0.59657303	297.47339331	-27.08579507	0.67843708	0	-0.37708848	0	-6.97671635	0	0	0.30468110	-0.00000000
0.26000000	7.03488259	251.45982597	23.31088392	0.64196980	0	-0.66256485	0.69470425	296.98645962	-27.08003138	0.67905395	0	-0.37688376	0	-6.95613792	0	0	0.27020651	0.00000000
0.27000000	7.48787145	252.67887235	23.29337104	0.64141182	0	-0.66255436	0.72704775	296.28138768	-27.11654067	0.67950165	0	-0.37667885	0	-6.92040953	0	0	0.25124872	0.00000000
0.28000000	7.88576291	253.97236625	23.26759875	0.64097443	0	-0.66260401	0.71889485	295.42972251	-27.19811328	0.67966290	0	-0.37652598	0	-6.87832389	0	0	0.26621770	0.00000000
0.29000000	8.21031854	255.22539585	23.27783427	0.64056075	0	-0.66266619	0.71585954	294.59183932	-27.30101009	0.67968366	0	-0.37642430	0	-6.84476638	0	0	0.31194129	-0.00000000
0.30000000	8.48526100	256.45696869	23.34509372	0.64019870	0	-0.66272083	0.73064793	293.90801314	-27.40082346	0.67978358	0	-0.37632608	0	-6.80339314	0	0	0.36668793	0
0.31000000	8.72654051	257.71522047	23.46169905	0.64001220	0	-0.66279658	0.75715946	293.31245177	-27.47601544	0.67999217	0	-0.37623616	0	-6.74170413	0	0	0.40346310	-0.00000000
0.32000000	8.93040962	258.90853628	23.59152638	0.64013184	0	-0.66289118	0.78189683	292.71431984	-27.49938894	0.68025034	0	-0.37617304	0	-6.68783850	0	0	0.41046840	0.00000000
0.33000000	9.07732136	259.87454946	23.70616698	0.64052025	0	-0.66297626	0.79261873	292.01897773	-27.46720115	0.68044595	0	-0.37610614	0	-6.66056643	0	0	0.40629648	-0.00000000
